<?xml version="1.0" encoding="UTF-8" standalone="no"?>
<svg
   xmlns:dc="http://purl.org/dc/elements/1.1/"
   xmlns:cc="http://creativecommons.org/ns#"
   xmlns:rdf="http://www.w3.org/1999/02/22-rdf-syntax-ns#"
   xmlns:svg="http://www.w3.org/2000/svg"
   xmlns="http://www.w3.org/2000/svg"
   height="835"
   width="835"
   version="1.0"
   viewBox="0 0 834.99997 835.00004"
   id="svg2">
  <defs
     id="defs4">
    <filter
       id="filter4153">
      <feGaussianBlur
         stdDeviation="81.084917"
         id="feGaussianBlur4155" />
    </filter>
    <style
       type="text/css"
       id="style3386">
    .str0 {stroke:#009846;stroke-width:52.92;stroke-linecap:round;stroke-linejoin:round}
    .fil0 {fill:none}
    .fil1 {fill:lime}
  </style>
  </defs>
  <g
     transform="translate(45.410818,275.93981)"
     id="layer1">
    <g
       transform="translate(0.65940822,0)"
       id="g3369">
      <rect
         id="rect3152"
         style="fill:#c8c4b7;filter:url(#filter4153)"
         transform="matrix(0.11047,-0.023735,0.022163,0.10315,300.37,-149.68913)"
         height="3419.3"
         width="5602.8999"
         y="56.332001"
         x="-2512.5" />
      <rect
         id="rect3162"
         style="fill:#ffe680"
         transform="matrix(0.9776883,-0.21006094,0.21006761,0.97768686,0,0)"
         height="360.75027"
         width="633.07739"
         y="-92.742546"
         x="52.823395" />
      <ellipse
         id="path4171"
         style="fill:#ecca3e"
         transform="matrix(0.98370743,-0.17977681,0.17978128,0.98370661,0,0)"
         cx="352.75662"
         cy="-51.803917"
         rx="54.686268"
         ry="51.564392" />
      <g
         id="g6179"
         transform="translate(0,-242.03513)">
        <circle
           id="path2164"
           style="fill:#00bf00"
           transform="matrix(0.43582,-0.079648,0.075103,0.41094,140.95,-12.415)"
           cx="404.38675"
           cy="393.1416"
           r="123.43465" />
        <path
           id="path2179"
           d="m 509.34,405.88 -152.09,27.81 -31.84,143.87 c 17.67,2.7 36.12,2.74 54.84,-0.68 84.38,-15.43 141.36,-91.54 129.09,-171 z"
           style="fill:#00d600"
           transform="matrix(0.34629,0,0,0.34629,227.09,-36.051)" />
        <path
           id="path2162"
           d="m 358.56,281.16 c -10.46,-0.11 -21.12,0.79 -31.84,2.75 -85.75,15.67 -143.34,94.01 -128.56,174.87 11.55,63.21 63.97,109.14 127.25,118.78 l 31.84,-143.87 152.09,-27.81 c -0.2,-1.3 -0.26,-2.59 -0.5,-3.88 C 495.91,331.25 431.83,281.89 358.56,281.16 Z"
           style="fill:#00e600"
           transform="matrix(0.34629,0,0,0.34629,227.09,-36.051)" />
        <path
           id="path2166"
           d="m 294.21,361.94 -11.42,8.44 -21.06,15.75 c -8.59,18.28 -7.39,37.67 -2.01,58.27 13.96,53.44 53.71,79.56 109.79,73.19 28.71,-3.26 55.01,-12.92 71.14,-33.43 L 469.9,447.48 294.21,361.94 Z"
           style="fill:#009900"
           transform="matrix(0.34629,0,0,0.34629,227.09,-36.051)" />
        <circle
           id="path2160"
           style="fill:#00bf00"
           transform="matrix(0.34065,-0.062255,0.058702,0.3212,200.08,-8.6127)"
           cx="404.38675"
           cy="393.1416"
           r="123.43465" />
        <circle
           id="path2174"
           style="fill:#00e600"
           transform="matrix(0.34065,-0.062255,0.058702,0.3212,203.09,-11.37)"
           cx="404.38675"
           cy="393.1416"
           r="123.43465" />
      </g>
      <path
         id="path6189"
         style="fill:#2b1100"
         d="m 521.62129,-135.53746 c -1.53981,0.44983 -2.76432,2.29649 -2.16712,4.73746 1.78416,7.27211 2.34342,14.76003 3.5071,22.14263 2.20474,9.991359 3.36942,20.139209 4.54214,30.284481 1.28608,10.747104 3.42252,21.354274 5.01884,32.046137 2.47121,10.269274 3.61305,20.787881 5.95855,31.079768 3.02289,9.3919723 4.18025,19.2407955 6.88198,28.70924 2.62047,6.480747 5.20394,12.92905 7.26703,19.6064 0.35087,5.126046 2.32091,10.10477 4.12738,14.435722 0.8636,5.342662 4.39532,9.111093 6.19275,13.772919 0.95947,4.647088 2.16951,8.611013 3.08832,13.076142 1.38525,2.383082 1.92589,4.868793 2.4191,7.538143 3.31888,17.744413 29.94621,11.335542 24.81806,-5.970074 -0.7845,-2.637919 -1.52276,-5.352725 -1.57457,-8.110544 -1.52743,-5.173945 -3.24901,-10.649013 -6.2985,-15.290187 -0.65499,-4.665025 -2.5317,-9.159584 -4.68165,-13.566457 -1.42439,-4.604258 -3.24491,-9.586642 -5.94439,-14.021033 -2.89222,-6.526503 -5.74683,-13.073937 -8.97975,-19.4467811 -4.27355,-8.068756 -8.21305,-16.1738019 -10.261,-25.1517949 -2.98068,-10.061457 -5.85689,-20.156441 -8.24863,-30.371441 -3.53974,-9.952955 -7.32604,-19.817925 -9.47034,-30.200975 -2.53015,-10.011027 -4.03464,-20.085285 -5.11261,-30.349605 -1.89266,-7.83118 -3.96428,-15.88858 -7.62585,-23.07232 -0.89339,-1.7343 -2.25714,-2.22738 -3.45684,-1.87783 z m 84.32167,-20.97048 c -0.91705,0.37407 -1.74406,1.52587 -2.4727,3.42615 -1.83655,4.7732 -2.12884,9.41425 -2.07837,14.43283 0.50016,5.61884 0.62926,11.24154 0.73167,16.86393 1.71305,8.37634 3.4637,16.73175 4.81829,25.178815 2.24626,10.811258 3.98484,21.670204 4.99588,32.665123 0.20969,8.193992 1.49069,16.301243 2.14118,24.460143 0.12664,5.366424 2.04846,10.360621 2.93964,15.623518 0.15482,5.233282 1.39732,10.347978 2.84174,15.0699037 1.51489,4.389072 1.55173,8.4813012 3.14518,13.0047124 0.58112,5.5396794 1.89758,11.4372679 3.90522,16.3950599 -0.67923,1.778045 1.01228,2.795285 1.5144,4.194218 5.88897,16.582801 28.89988,8.958931 23.60303,-7.822753 -0.10802,-0.364217 -0.029,-4.316351 -1.41726,-4.526773 -1.12649,-4.0350557 -3.19144,-7.9284973 -4.41773,-12.1088067 -0.14925,-5.492128 -1.69714,-10.5088213 -3.04897,-15.6327513 -0.88738,-4.173838 -2.13287,-9.021652 -3.33344,-13.59137 -1.36989,-5.180184 -1.54127,-10.603163 -3.70933,-15.536063 -2.82074,-7.187651 -5.19114,-14.546414 -7.43038,-21.938405 -2.1638,-11.023866 -3.7717,-22.110894 -5.55838,-33.202596 -1.71455,-8.242905 -2.53945,-16.558575 -3.32357,-24.940505 -1.63179,-5.38865 -2.745,-10.84622 -3.92159,-16.36322 -1.43213,-4.62837 -3.00118,-9.1862 -5.87104,-13.18476 -1.52426,-2.12574 -2.8738,-2.93361 -4.05347,-2.4664 z M 174.47092,-14.913155 c -1.18453,0.424453 -2.32263,0.993562 -3.39627,1.76358 -6.0211,2.809802 -12.40483,4.752065 -18.5045,7.4275284 -7.3291,3.6284394 -14.24016,8.2750471 -22.51053,9.4399727 -6.59149,1.689832 -12.55393,4.4808079 -18.46932,7.7885269 -6.70536,-7.2883511 -21.426469,3.410232 -14.797833,14.135862 4.876613,7.892951 7.750693,16.774246 10.984213,25.424955 3.66431,11.650334 7.08465,23.396691 10.62278,35.087515 3.74999,12.030583 6.40328,24.342205 9.71736,36.494945 3.67247,12.76459 5.2899,25.93161 6.96806,39.06141 1.30966,7.77008 1.21474,15.64522 1.30501,23.48752 13.38112,16.58061 21.07089,9.82265 35.7028,2.84013 6.67786,-4.15516 14.27827,-5.9383 21.59895,-8.48263 5.67791,-2.74398 11.78405,-3.63985 17.87791,-4.7977 3.48751,-0.87986 6.91579,-1.26206 10.65239,-1.50387 4.5522,0.17011 9.02857,0.39115 13.48437,1.01768 21.38629,3.0025 24.71975,-30.27918 3.12492,-30.39599 -5.52217,-0.0273 -11.01958,0.35416 -16.54343,0.2388 -6.4889,-0.22226 -13.11062,-1.64287 -19.30142,0.87569 -6.39986,2.45269 -12.28789,5.79595 -18.55485,8.56055 -8.60056,3.14121 -17.18604,6.43712 -25.67641,9.84434 -0.81649,0.47476 -1.51999,0.89553 -2.16517,1.27986 -0.81902,-2.20137 -1.56847,-4.44279 -2.15862,-6.72647 -3.3921,-12.97865 -7.2034,-25.84937 -9.49846,-39.09145 -0.91818,-5.06808 -1.93619,-10.113 -3.08134,-15.12597 1.07865,0.0439 2.23568,5.2e-4 3.46302,-0.17175 6.64566,-0.92718 12.97595,-3.12708 19.29372,-5.305236 4.43116,-1.554986 9.17573,-2.067087 13.69176,-2.479256 0.74949,0.167223 1.48756,0.329247 2.23706,0.49647 19.90666,4.487832 16.33267,-35.698236 -2.84762,-28.727507 -0.92013,0.339604 -1.82723,0.683891 -2.74656,1.023237 -7.20894,0.602698 -12.76822,4.310247 -19.03865,7.740768 -5.8648,2.653275 -11.89161,4.995111 -17.34498,8.447075 -0.50809,0.322606 -0.97211,0.666526 -1.41909,1.013841 -0.47672,-1.593229 -0.9663,-3.182332 -1.47436,-4.765503 -3.51847,-12.016241 -7.76356,-23.763842 -12.53085,-35.334998 -2.21294,-6.691309 -4.02663,-13.519605 -6.056,-20.252096 0.31563,-0.154473 0.64796,-0.323172 0.96579,-0.531537 4.76581,-3.000851 10.30647,-3.954574 15.71558,-5.14973 8.8958,-1.312453 17.32295,-4.389138 25.98244,-6.64512 6.34772,-0.184493 12.49137,-0.427595 18.82694,-1.503456 5.13715,-0.150564 9.59258,0.03288 14.63559,-1.9577909 18.53917,-7.3056932 11.10362,-33.5414981 -7.75426,-27.0908411 -3.5636,1.214526 -7.44808,1.29106 -10.98014,2.548645 z M 484.82959,-74.62368 c -0.40668,0.08619 -0.86685,0.42001 -1.49242,0.984191 -8.34032,7.54289 -6.68614,20.92858 -12.67702,30.323529 -5.33066,8.358716 16.41739,10.996928 13.94127,1.402895 -2.79321,-10.83074 5.51918,-20.642725 1.80742,-30.965954 -0.47087,-1.329184 -0.91313,-1.878653 -1.57925,-1.744661 z M 268.92138,38.408504 c -4.73218,1.882051 -8.12707,6.853971 -4.83796,12.73899 4.29124,7.681927 7.8442,15.742599 11.52348,23.727283 2.83775,9.477978 5.53402,18.957037 8.73053,28.337613 2.66547,7.22861 4.30516,14.76869 6.72953,22.07468 1.40825,4.13964 1.86077,8.53281 2.43851,12.70851 2.9357,20.9698 23.40248,13.62167 21.78156,-4.63219 -1.20411,-4.96746 -2.69683,-10.14369 -4.29838,-15.13429 -0.20524,-0.50144 -0.39183,-0.99999 -0.59707,-1.50143 0.36206,-3.48452 0.73216,-6.97162 1.02219,-10.45963 1.51061,-10.456818 0.94589,-21.027672 1.5494,-31.521361 0.29068,-4.259381 1.53308,-8.17711 3.13185,-11.978736 0.99259,1.932927 2.02495,4.127878 2.89845,6.684052 3.28535,10.265062 6.67805,20.477945 10.37325,30.611475 3.22023,7.74198 4.85819,15.91196 6.16983,24.14234 1.23487,11.02946 10.74937,8.0293 14.97473,0.64577 4.91302,2.93513 12.17311,-0.15705 7.39861,-7.82571 -2.89484,-5.81654 -5.68233,-11.68525 -8.08635,-17.712484 -0.0141,-2.308978 0.0759,-4.624795 0.23539,-6.945172 0.78099,-5.852704 2.53326,-11.440943 4.57424,-17.06865 1.06188,-7.573828 3.3372,-14.819083 5.22462,-22.223501 0.95327,-3.603343 2.21925,-7.00566 3.26171,-10.469206 0.78695,-1.38714 1.58193,-2.776859 2.40073,-4.147627 1.35298,5.735179 3.36237,11.250844 5.47305,16.778322 4.20705,8.524436 7.36679,17.376105 9.62009,26.607302 2.46212,8.224599 3.48751,16.750709 4.70578,25.214926 0.30358,6.24923 0.60953,11.09718 3.34249,16.35405 7.43048,14.31529 21.66474,9.58775 21.83497,-6.53738 0.052,-5.11351 -2.35737,-9.47258 -4.08769,-14.64347 -2.49325,-8.542574 -6.43077,-16.586207 -8.34797,-25.322509 -3.02199,-9.472037 -6.12177,-18.910248 -9.39031,-28.2943 -2.61844,-7.137337 -5.00671,-14.330813 -8.63349,-21.047059 -7.01865,-11.291862 -16.75994,-6.871586 -21.16955,3.611434 -0.14765,0.313304 -0.27922,0.62145 -0.41884,0.932175 l -0.0804,0.02579 c -1.08323,0.436266 -2.17192,0.883147 -3.25516,1.319413 -3.68114,5.267655 -5.35371,10.413708 -5.66071,17.080484 -1.84429,7.842643 -4.80271,15.307113 -6.31583,23.132118 0.21074,2.866369 0.19796,5.671508 0.0893,8.454219 -2.43983,-6.166429 -4.92529,-12.309349 -7.46702,-18.434215 -6.30605,-18.186305 -3.67579,-35.180674 -29.42305,-31.084095 -5.17827,4.055077 -8.42437,9.324943 -9.72994,15.780331 -1.20232,8.43439 -1.10465,16.859341 -1.30433,25.379716 -0.12069,2.192692 -0.21757,4.404336 -0.28488,6.597627 -1.60651,-3.597361 -3.0899,-7.22537 -4.37466,-10.952579 -2.43579,-8.667383 -6.00454,-16.749586 -8.79969,-25.26619 -2.10884,-6.405609 -8.18891,-7.618886 -12.92108,-5.736836 z M 423.07609,-0.3985905 C 416.25661,2.4369547 409.6459,4.9839039 405.27142,10.9084 c -6.99326,6.906727 -6.52867,16.171241 -4.873,25.142164 4.02458,10.276024 7.06356,20.850613 10.07267,31.470243 3.56513,10.308238 6.97162,20.481238 8.90913,31.214297 1.09791,5.630886 3.34215,10.911636 5.25432,16.290086 8.18698,17.3079 25.31255,11.81205 26.39374,-5.81094 0.34022,-7.72339 1.26469,-15.421537 2.52202,-23.049225 0.49234,-9.624791 -0.0429,-18.777993 1.65496,-28.319862 0.31818,1.378185 0.6312,2.740297 0.92816,4.107567 0.69993,6.130896 2.74075,11.937851 4.57293,17.785173 2.14607,5.941594 3.90154,11.964219 5.49856,18.073149 2.74563,2.699958 3.14194,6.393178 4.56385,9.553398 5.46829,12.206 22.94869,4.58415 17.32482,-7.554206 -1.46724,-3.163395 -3.93478,-5.908277 -4.46057,-9.480168 -3.0351,-4.734433 -5.22818,-9.579531 -6.0724,-15.220921 -1.3645,-5.660572 -2.81739,-11.292775 -4.62905,-16.827575 -1.45483,-6.411619 -2.66856,-12.900607 -4.6535,-19.1687 -2.95516,-8.76663 -3.24899,-16.836116 -9.00489,-20.298523 -0.35583,-0.639251 -0.72258,-1.257271 -1.12663,-1.881048 -0.48081,0.269529 -0.93204,0.520706 -1.35689,0.79887 -1.77954,-0.545787 -3.93601,-0.802196 -6.60921,-0.680043 6.56482,-3.214753 8.81954,-12.4300767 0.001,-16.2925137 -8.58989,-3.758447 -18.14689,-3.1556662 -27.10563,-1.1582128 z m 67.94622,-13.5791235 c -2.92237,0.920104 -5.08453,4.2643225 -3.93794,8.8868177 1.45566,5.8617816 3.11997,11.6831974 4.65857,17.5272253 3.10682,7.85815 3.54052,16.308224 5.94619,24.329334 3.55382,8.69861 4.00127,17.826805 4.31407,27.060255 -0.0184,5.687764 0.33808,11.024737 1.66917,16.332606 -0.71964,2.287401 1.38557,3.544168 2.08639,5.313673 6.05831,15.287493 25.18337,8.81314 22.08414,-7.335322 -0.24507,-1.23323 0.70092,-2.760052 -0.71915,-3.704849 -0.89686,-4.75582 -2.58203,-10.145067 -4.55297,-15.043726 -3.42692,-8.827975 -8.01485,-17.185857 -8.83282,-26.833355 -1.9076,-8.40255 -5.49937,-16.335538 -7.59955,-24.7028803 -2.27316,-6.0337712 -4.29659,-12.2008678 -7.37171,-17.8886377 -2.00048,-3.692532 -5.16758,-4.750348 -7.74439,-3.941141 z M 234.72198,72.625108 c -1.51114,0.51154 -3.06228,1.257518 -4.81385,2.262824 -11.43599,6.541926 2.11611,24.078172 11.40284,14.733543 4.44899,-4.476978 5.84325,-7.893871 7.06289,-14.064623 0.65353,-3.294414 0.52278,-3.536105 -2.82662,-3.808566 -4.41346,-0.356465 -7.51078,-0.257754 -10.82526,0.876822 z M 432.1914,16.957093 c 2.67414,-0.92022 5.15416,-0.953789 8.3272,0.288266 2.81697,1.099265 5.48807,1.163929 7.78013,0.517015 -1.98369,3.375582 -3.94768,7.613522 -3.83958,12.728837 0.53331,8.373787 0.17859,16.438666 -1.40103,24.71935 -0.73534,10.110521 -3.64899,18.81932 -6.68157,28.372907 -0.27872,2.004078 -0.52787,3.989804 -0.79052,5.988725 -4.14485,-8.35825 -7.45212,-17.144846 -10.19745,-26.058595 -2.49633,-9.933242 -4.72458,-19.970243 -5.50669,-30.196546 -0.009,-3.010908 0.0888,-5.772388 0.93268,-8.666963 2.29779,-1.871992 5.64948,-4.658358 8.60356,-6.501635 0.95842,-0.493718 1.88639,-0.889019 2.77327,-1.191361 z m 213.33976,36.211544 c -4.78969,1.537084 -8.28245,7.143166 -8.08888,16.060318 0.0556,2.659103 1.30325,4.69632 2.11167,7.10496 5.78942,17.128862 29.59324,9.489864 24.33422,-7.809212 -0.73609,-2.431851 -0.93099,-4.806917 -2.44116,-6.999221 -5.03148,-7.364594 -11.12615,-9.893929 -15.91585,-8.356845 z" />
    </g>
    <g
       transform="matrix(0.08790947,0,0,0.08790947,335.9704,77.138302)"
       id="g3399"
       style="clip-rule:evenodd;fill-rule:evenodd;image-rendering:optimizeQuality;shape-rendering:geometricPrecision;text-rendering:geometricPrecision">
      <g
         id="Layer_x0020_1">
        <g
           id="g3389">
          <polygon
             style="fill:none;stroke:#009846;stroke-width:52.91999817;stroke-linecap:round;stroke-linejoin:round"
             points="4586,26 1411,3452 26,2802 1363,4869 "
             class="fil0 str0"
             id="polygon3391" />
          <polygon
             style="fill:#00ff00"
             id="1"
             points="4586,26 1411,3452 26,2802 1363,4869 "
             class="fil1" />
        </g>
      </g>
    </g>
  </g>
  <metadata
     id="metadata19">
    <rdf:RDF>
      <cc:Work>
        <dc:format>image/svg+xml</dc:format>
        <dc:type
           rdf:resource="http://purl.org/dc/dcmitype/StillImage" />
        <cc:license
           rdf:resource="http://creativecommons.org/publicdomain/zero/1.0/" />
        <dc:publisher>
          <cc:Agent
             rdf:about="http://openclipart.org/">
            <dc:title>Openclipart</dc:title>
          </cc:Agent>
        </dc:publisher>
        <dc:title></dc:title>
        <dc:date>2007-02-06T06:13:53</dc:date>
        <dc:description>Thumbtack note with message &quot;E-mail!&quot;</dc:description>
        <dc:source>https://openclipart.org/detail/3040/thumbtack-note-email-by-zeimusu</dc:source>
        <dc:creator>
          <cc:Agent>
            <dc:title>zeimusu</dc:title>
          </cc:Agent>
        </dc:creator>
        <dc:subject>
          <rdf:Bag>
            <rdf:li>bulletin</rdf:li>
            <rdf:li>email</rdf:li>
            <rdf:li>memo</rdf:li>
            <rdf:li>note</rdf:li>
            <rdf:li>thumbtack</rdf:li>
            <rdf:li>thumbtack note</rdf:li>
          </rdf:Bag>
        </dc:subject>
      </cc:Work>
      <cc:License
         rdf:about="http://creativecommons.org/publicdomain/zero/1.0/">
        <cc:permits
           rdf:resource="http://creativecommons.org/ns#Reproduction" />
        <cc:permits
           rdf:resource="http://creativecommons.org/ns#Distribution" />
        <cc:permits
           rdf:resource="http://creativecommons.org/ns#DerivativeWorks" />
      </cc:License>
    </rdf:RDF>
  </metadata>
</svg>
