<svg xmlns="http://www.w3.org/2000/svg" xmlns:xlink="http://www.w3.org/1999/xlink" width="70" height="70"
     viewBox="0 0 70 70">
    <defs>
        <path id="a" d="M4 0h61c4 0 5 1 5 5v60c0 4-1 5-5 5H4c-3 0-4-1-4-5V5c0-4 1-5 4-5z"/>
        <linearGradient id="c" x1="98.162%" x2="0%" y1="1.838%" y2="100%">
            <stop offset="0%" stop-color="#7e817e"/>
            <stop offset="50.799%" stop-color="#6f716f"/>
            <stop offset="100%" stop-color="#5c5e5c"/>
        </linearGradient>
    </defs>
    <g fill="none" fill-rule="evenodd">
        <mask id="b" fill="#fff">
            <use xlink:href="#a"/>
        </mask>
        <g mask="url(#b)">
            <path fill="url(#c)" d="M0 0H70V70H0z"/>
            <path fill="#FFF" fill-opacity=".383" d="M4 1h61c2.667 0 4.333.667 5 2V0H0v3c.667-1.333 2-2 4-2z"/>
            <path fill="#000" fill-opacity=".383" d="M4 69h61c2.667 0 4.333-1 5-3v4H0v-4c.667 2 2 3 4 3z"/>
            <g id="svg_7" opacity=".324">
                <rect id="svg_8" height="4.29408" width="18.08718" y="23.61744" x="23.90696" fill-opacity="null"
                      stroke-opacity="null" stroke-width="0.11852" fill="#393939"/>
                <rect transform="rotate(19.719938278198242 44.512172698974645,55.58865737915038) " id="svg_11"
                      height="7.12755" width="3.91384" y="52.02488" x="42.55525" fill-opacity="null"
                      stroke-opacity="null" stroke-width="0.11852" fill="#393939"/>
                <rect transform="rotate(45 46.040908813476584,43.306949615478516) " id="svg_7" height="7.46794"
                      width="5.87422" y="39.57298" x="43.1038" fill-opacity="null" stroke-opacity="null"
                      stroke-width="0.11852" fill="#393939"/>
                <rect transform="rotate(45 42.167163848876946,36.536155700683594) " id="svg_6" height="23.24788"
                      width="7.89847" y="24.91222" x="38.21793" fill-opacity="null" stroke-opacity="null"
                      stroke-width="0.11852" fill="#393939"/>
                <rect transform="rotate(45 42.95734405517579,27.238912582397464) " id="svg_5" height="23.24788"
                      width="5.85371" y="15.61497" x="40.03049" fill-opacity="null" stroke-opacity="null"
                      stroke-width="0.11852" fill="#393939"/>
                <rect transform="rotate(45 28.577348709106467,57.51951217651366) " id="svg_4" height="20.9178"
                      width="28.55077" y="47.06061" x="14.30196" fill-opacity="null" stroke-opacity="null"
                      stroke-width="0.11852" fill="#393939"/>
                <rect transform="rotate(45 15.595499038696312,50.89617919921874) " id="svg_3" height="50.72856"
                      width="46.97069" y="25.5319" x="-7.88984" fill-opacity="null" stroke-opacity="null"
                      stroke-width="0.11852" fill="#393939"/>
            </g>
            <path id="svg_1"
                  d="m44.72095,62.25269c-0.69205,-0.22419 -2.10617,-1.05033 -3.11193,-1.81801c-1.81897,-1.38841 -3.61414,-3.36433 -4.712,-5.18646c-0.42601,-0.70706 -1.11393,-2.07291 -1.29227,-2.56577c-0.19543,-0.5401 -0.23003,-0.78919 -0.13968,-1.00543c0.14539,-0.34797 0.50434,-0.44907 1.73272,-0.48804c1.56427,-0.04962 2.43064,-0.19467 3.70909,-0.62098c1.30398,-0.43482 2.51162,-1.06283 3.63801,-1.89185c0.77462,-0.57012 1.02729,-0.71946 1.55042,-0.91635c1.35863,-0.51135 2.67998,-0.33823 3.49338,0.45768c0.31244,0.30573 0.84463,1.08958 1.0041,1.47892c0.14125,0.34486 0.14154,0.8583 0.0008,1.25263c-0.15632,0.43768 -0.60108,1.24831 -1.23904,2.2583c-1.06972,1.69353 -1.3685,2.23095 -1.7503,3.14832c-0.4453,1.06994 -0.68939,2.00263 -0.90246,3.44829c-0.17104,1.1605 -0.28222,1.61614 -0.48904,2.00416c-0.2941,0.5518 -0.74548,0.68633 -1.4917,0.44459l-0.0001,0zm0.2035,-1.5352c0.29022,-0.31217 0.51723,-0.97538 0.70255,-2.05253c0.27556,-1.60166 0.59145,-2.63871 1.24044,-4.07225c0.38999,-0.86144 0.47676,-1.18209 0.40456,-1.4949c-0.07171,-0.31065 -0.46245,-0.82859 -1.11775,-1.4816c-0.41884,-0.41739 -0.5985,-0.56016 -0.88747,-0.70527c-0.34428,-0.1729 -0.38101,-0.1811 -0.73792,-0.16481c-0.3586,0.01634 -0.40882,0.03368 -1.10888,0.38234c-0.87794,0.43725 -1.62388,0.68593 -3.39089,1.13041c-1.41781,0.35663 -1.96802,0.53926 -2.35616,0.78204c-0.40934,0.25605 -0.47286,0.46727 -0.18523,0.61601c0.22794,0.11787 0.55459,0.16209 1.43327,0.19401c0.81045,0.02944 1.03694,0.06552 1.03694,0.16512c0,0.09679 -0.10776,0.25848 -0.42574,0.63873c-0.67093,0.80235 -0.79179,1.04834 -0.6652,1.35397c0.07299,0.17619 1.0867,1.14966 1.30514,1.25332c0.32358,0.15355 0.39962,0.11871 0.93185,-0.42692c0.26878,-0.27554 0.55835,-0.54403 0.64348,-0.59665c0.1753,-0.10833 0.32566,-0.08549 0.37066,0.05631c0.047,0.14806 -0.06844,0.60465 -0.26326,1.04132c-0.32819,0.73557 -0.36649,1.09593 -0.16045,1.5094c0.29769,0.59737 0.9988,0.82518 1.78302,0.57935c0.39004,-0.12227 0.62945,-0.12284 0.75048,-0.002c0.10835,0.10834 0.12039,0.15824 0.18007,0.74622c0.06606,0.65076 0.24478,0.84046 0.51649,0.5482l0,0.00018zm-12.91569,-2.09994c-2.37823,-0.11956 -4.34085,-0.34557 -6.21021,-0.71516c-3.51431,-0.69481 -6.40933,-1.81528 -8.346,-3.23021c-0.21616,-0.15793 -0.76106,-0.66409 -1.21123,-1.12512l-0.81829,-0.83803l-0.00035,-3.54507l-0.00035,-3.54506l0.60509,0.28754c2.15419,1.02367 2.7386,1.2647 4.05457,1.67227c2.5044,0.77563 5.77793,1.34369 9.3166,1.61673c3.66949,0.28313 7.88169,0.25007 11.29491,-0.08864c0.33932,-0.03368 0.62407,-0.0556 0.63276,-0.04872c0.07059,0.05585 -1.38948,0.57436 -2.19886,0.78088c-0.99162,0.25301 -1.58347,0.33142 -2.87118,0.38036c-1.14972,0.04368 -1.5228,0.10172 -1.75144,0.27242c-0.4896,0.36554 -0.44258,0.93482 0.21399,2.59097c0.46541,1.17394 0.98906,2.25576 1.50299,3.10505c0.41204,0.6809 1.07336,1.63895 1.42464,2.06384c0.10336,0.12503 0.17383,0.24143 0.1566,0.25866c-0.09881,0.09881 -4.38449,0.17817 -5.79424,0.10729zm18.17626,-10.25829c-0.14911,-0.08164 -0.64068,-0.57219 -0.71546,-0.71397c-0.08646,-0.16393 -0.08624,-0.38723 0.0004,-0.55048c0.07401,-0.13925 5.00614,-5.07267 5.19838,-5.19974c0.13506,-0.08928 0.43438,-0.1019 0.58578,-0.02471c0.15014,0.07656 0.645,0.56579 0.72421,0.71598c0.08583,0.16274 0.08635,0.38604 0.0012,0.55047c-0.09499,0.18363 -5.12928,5.17533 -5.27559,5.23095c-0.1595,0.06064 -0.40004,0.0567 -0.51913,-0.00849l0.00021,-0.00001zm-20.97626,-1.51488c-1.2885,-0.10201 -5.51558,-0.84656 -7.42711,-1.3082c-2.5372,-0.61272 -3.98674,-1.19422 -5.58772,-2.24156l-0.77078,-0.50423l-0.00044,-3.59491c-0.00021,-1.9772 0.0105,-3.59492 0.02381,-3.59492c0.01331,0 0.42442,0.20029 0.91356,0.44509c1.43542,0.71837 2.79072,1.21265 4.56532,1.66497c3.80039,0.96868 8.36197,1.44888 13.7647,1.449c5.71249,0.00014 10.13035,-0.50469 13.92881,-1.59164c1.52675,-0.43689 2.41461,-0.76361 4.05762,-1.49314c0.48288,-0.2144 0.92602,-0.4083 0.98474,-0.43088l0.10679,-0.04104l0,2.90388l0,2.90389l-1.50678,1.50953l-1.50678,1.50954l-0.47458,0.18311c-1.84975,0.71372 -4.90237,1.50406 -6.69152,1.73249c-1.5798,0.20169 -4.57472,0.3862 -8.16271,0.50288c-1.648,0.05359 -5.52173,0.05119 -6.21694,-0.004l0.00001,0.00014zm1.61356,-10.23209c-1.51082,-0.02409 -3.05133,-0.11679 -3.88968,-0.23405c-3.51304,-0.49138 -7.5139,-1.57349 -9.63573,-2.60617c-0.76444,-0.37204 -1.13643,-0.61649 -1.4346,-0.94274c-0.42764,-0.46791 -0.45582,-0.73639 -0.42603,-4.05922c0.02187,-2.43806 0.06481,-3.27976 0.17289,-3.38864c0.04948,-0.04984 0.35769,0.10657 0.78852,0.40015c0.5658,0.38555 1.59494,0.79523 3.21403,1.27944c4.62437,1.38299 8.61649,1.89567 14.76992,1.8968c6.15088,0.00112 10.49326,-0.53042 14.92244,-1.82663c1.76896,-0.51768 2.81449,-0.92683 3.4604,-1.35415c0.52289,-0.34594 0.71899,-0.44619 0.77102,-0.39416c0.15241,0.15241 0.27508,3.4419 0.1935,5.18883c-0.05949,1.27383 -0.11743,1.61311 -0.34997,2.0494c-0.29182,0.54752 -0.80446,0.87248 -2.3635,1.49825c-3.82081,1.5336 -6.77692,2.12978 -11.81694,2.38319c-2.22321,0.11178 -5.53001,0.15509 -8.37627,0.1097zm0.45085,-9.9352c-4.56906,-0.12324 -9.49023,-1.05142 -12.57874,-2.37249c-0.36252,-0.15507 -1.21396,-0.55951 -1.89209,-0.89877c-1.19579,-0.59823 -1.23368,-0.62151 -1.25693,-0.77206c-0.06215,-0.4025 -0.11936,-2.21805 -0.07861,-2.49518c0.05909,-0.40196 0.25991,-0.81289 0.60902,-1.24619c2.03601,-2.52707 6.90995,-4.32265 13.51261,-4.97812c1.64178,-0.16298 2.31828,-0.19806 4.34236,-0.22515c4.74734,-0.06352 8.86437,0.42283 12.48135,1.47446c3.11989,0.9071 5.67268,2.34914 6.5949,3.72539c0.54496,0.81325 0.76952,1.74566 0.66711,2.77001c-0.06849,0.68506 -0.17572,0.96046 -0.48872,1.25513c-1.19134,1.12156 -6.16767,2.74265 -10.02429,3.26551c-2.78115,0.37705 -8.10011,0.59962 -11.88797,0.49746z"
                  stroke-width="0.11852" fill="#000000" opacity="0.3"/>
            <path fill="#ffffff" stroke-width="0.11852"
                  d="m44.72095,60.50285c-0.69205,-0.22419 -2.10617,-1.05033 -3.11193,-1.81801c-1.81897,-1.3884 -3.61414,-3.36433 -4.71199,-5.18645c-0.42601,-0.70706 -1.11393,-2.07291 -1.29227,-2.56577c-0.19543,-0.5401 -0.23004,-0.78919 -0.13968,-1.00543c0.14539,-0.34797 0.50434,-0.44907 1.73272,-0.48804c1.56427,-0.04962 2.43064,-0.19467 3.70909,-0.62098c1.30397,-0.43482 2.51162,-1.06282 3.63801,-1.89185c0.77462,-0.57012 1.02729,-0.71946 1.55042,-0.91635c1.35862,-0.51135 2.67997,-0.33823 3.49338,0.45768c0.31244,0.30573 0.84463,1.08958 1.0041,1.47892c0.14125,0.34486 0.14154,0.8583 0.0008,1.25263c-0.15632,0.43767 -0.60108,1.24831 -1.23904,2.2583c-1.06972,1.69353 -1.3685,2.23095 -1.7503,3.14832c-0.4453,1.06994 -0.68939,2.00263 -0.90246,3.44828c-0.17104,1.1605 -0.28222,1.61615 -0.48904,2.00417c-0.29411,0.5518 -0.74549,0.68633 -1.4917,0.44459l-0.0001,0zm0.2035,-1.5352c0.29022,-0.31217 0.51723,-0.97539 0.70255,-2.05254c0.27556,-1.60166 0.59145,-2.6387 1.24044,-4.07224c0.38999,-0.86145 0.47676,-1.18209 0.40456,-1.4949c-0.07171,-0.31066 -0.46245,-0.82859 -1.11775,-1.4816c-0.41885,-0.41739 -0.5985,-0.56016 -0.88747,-0.70527c-0.34428,-0.17289 -0.38101,-0.1811 -0.73792,-0.16481c-0.3586,0.01634 -0.40882,0.03368 -1.10888,0.38234c-0.87794,0.43726 -1.62389,0.68593 -3.39089,1.13041c-1.41781,0.35664 -1.96802,0.53926 -2.35617,0.78205c-0.40934,0.25604 -0.47285,0.46727 -0.18522,0.61601c0.22793,0.11787 0.55459,0.16208 1.43327,0.19401c0.81044,0.02943 1.03693,0.06552 1.03693,0.16511c0,0.0968 -0.10776,0.25848 -0.42573,0.63873c-0.67093,0.80235 -0.79179,1.04834 -0.6652,1.35397c0.07299,0.17619 1.0867,1.14966 1.30514,1.25332c0.32358,0.15355 0.39962,0.11871 0.93185,-0.42692c0.26878,-0.27554 0.55834,-0.54403 0.64348,-0.59665c0.1753,-0.10833 0.32566,-0.08549 0.37066,0.0563c0.04699,0.14806 -0.06844,0.60466 -0.26327,1.04133c-0.32818,0.73557 -0.36649,1.09593 -0.16045,1.5094c0.29769,0.59737 0.9988,0.82518 1.78302,0.57935c0.39004,-0.12227 0.62945,-0.12284 0.75048,-0.002c0.10835,0.10835 0.12039,0.15824 0.18007,0.74622c0.06606,0.65076 0.24478,0.84046 0.51649,0.5482l0,0.00018zm-12.91569,-2.09994c-2.37824,-0.11957 -4.34085,-0.34558 -6.21022,-0.71516c-3.51431,-0.69481 -6.40932,-1.81528 -8.34599,-3.23021c-0.21616,-0.15793 -0.76106,-0.66409 -1.21123,-1.12512l-0.8183,-0.83804l-0.00035,-3.54506l-0.00034,-3.54506l0.60508,0.28754c2.15419,1.02367 2.7386,1.2647 4.05458,1.67227c2.5044,0.77563 5.77793,1.34369 9.3166,1.61673c3.66948,0.28314 7.88168,0.25008 11.29491,-0.08864c0.33932,-0.03368 0.62406,-0.0556 0.63276,-0.04872c0.07059,0.05585 -1.38948,0.57436 -2.19886,0.78088c-0.99162,0.25302 -1.58347,0.33142 -2.87118,0.38036c-1.14971,0.04369 -1.52279,0.10172 -1.75143,0.27242c-0.48961,0.36554 -0.44259,0.93482 0.21399,2.59098c0.46541,1.17394 0.98906,2.25576 1.50299,3.10505c0.41204,0.6809 1.07336,1.63895 1.42463,2.06383c0.10337,0.12503 0.17383,0.24143 0.1566,0.25867c-0.09881,0.09881 -4.38449,0.17816 -5.79424,0.10729zm18.17626,-10.25829c-0.14911,-0.08164 -0.64069,-0.57219 -0.71546,-0.71398c-0.08646,-0.16393 -0.08624,-0.38723 0.0004,-0.55048c0.07401,-0.13925 5.00614,-5.07267 5.19838,-5.19974c0.13507,-0.08928 0.43438,-0.1019 0.58578,-0.02471c0.15015,0.07656 0.645,0.56579 0.72421,0.71597c0.08583,0.16275 0.08635,0.38604 0.0012,0.55048c-0.09499,0.18363 -5.12928,5.17532 -5.27559,5.23094c-0.1595,0.06064 -0.40004,0.0567 -0.51913,-0.00849l0.00021,-0.00001zm-20.97626,-1.51488c-1.2885,-0.10202 -5.51558,-0.84657 -7.42711,-1.3082c-2.5372,-0.61273 -3.98674,-1.19423 -5.58772,-2.24156l-0.77078,-0.50423l-0.00044,-3.59491c-0.00021,-1.9772 0.0105,-3.59491 0.02381,-3.59491c0.01331,0 0.42441,0.20029 0.91356,0.44509c1.43542,0.71837 2.79072,1.21265 4.56532,1.66497c3.80039,0.96868 8.36197,1.44887 13.7647,1.449c5.71249,0.00014 10.13034,-0.50469 13.92881,-1.59164c1.52676,-0.43689 2.41461,-0.76361 4.05763,-1.49314c0.48288,-0.21441 0.92602,-0.4083 0.98474,-0.43088l0.10678,-0.04105l0,2.90389l0,2.90389l-1.50678,1.50953l-1.50678,1.50954l-0.47458,0.18311c-1.84976,0.71371 -4.90238,1.50406 -6.69152,1.73248c-1.5798,0.2017 -4.57472,0.3862 -8.16271,0.50288c-1.64801,0.05359 -5.52174,0.05119 -6.21695,-0.004l0.00002,0.00015zm1.61356,-10.23209c-1.51082,-0.02409 -3.05133,-0.11679 -3.88969,-0.23405c-3.51304,-0.49138 -7.5139,-1.57349 -9.63573,-2.60617c-0.76444,-0.37205 -1.13643,-0.6165 -1.4346,-0.94274c-0.42764,-0.46791 -0.45582,-0.73639 -0.42603,-4.05923c0.02186,-2.43806 0.0648,-3.27976 0.17289,-3.38864c0.04948,-0.04984 0.35768,0.10657 0.78852,0.40015c0.56579,0.38555 1.59494,0.79523 3.21403,1.27944c4.62437,1.38299 8.61649,1.89567 14.76992,1.8968c6.15088,0.00112 10.49325,-0.53041 14.92244,-1.82662c1.76896,-0.51769 2.81449,-0.92684 3.4604,-1.35416c0.52289,-0.34593 0.71899,-0.44619 0.77102,-0.39416c0.15241,0.15241 0.27508,3.4419 0.1935,5.18884c-0.05949,1.27383 -0.11743,1.61311 -0.34997,2.0494c-0.29182,0.54752 -0.80445,0.87248 -2.3635,1.49825c-3.82081,1.5336 -6.77692,2.12978 -11.81694,2.38319c-2.22321,0.11178 -5.53001,0.15509 -8.37627,0.1097zm0.45084,-9.9352c-4.56906,-0.12323 -9.49022,-1.05142 -12.57873,-2.37249c-0.36253,-0.15507 -1.21397,-0.55951 -1.8921,-0.89877c-1.19578,-0.59823 -1.23368,-0.62151 -1.25693,-0.77206c-0.06215,-0.40249 -0.11935,-2.21805 -0.07861,-2.49517c0.05909,-0.40197 0.25991,-0.8129 0.60902,-1.2462c2.03602,-2.52706 6.90996,-4.32265 13.51261,-4.97811c1.64179,-0.16299 2.31828,-0.19806 4.34237,-0.22515c4.74733,-0.06353 8.86436,0.42283 12.48135,1.47446c3.11989,0.9071 5.67267,2.34914 6.5949,3.72539c0.54496,0.81325 0.76951,1.74566 0.66711,2.77001c-0.06848,0.68506 -0.17572,0.96046 -0.48872,1.25513c-1.19134,1.12157 -6.16767,2.74266 -10.02429,3.26551c-2.78115,0.37705 -8.10011,0.59963 -11.88797,0.49746z"
                  id="path8543"/>
        </g>
    </g>
</svg>
