<?xml version="1.0" encoding="UTF-8" standalone="no"?>
<!-- Created with Inkscape (http://www.inkscape.org/) -->

<svg
   xmlns:dc="http://purl.org/dc/elements/1.1/"
   xmlns:cc="http://creativecommons.org/ns#"
   xmlns:rdf="http://www.w3.org/1999/02/22-rdf-syntax-ns#"
   xmlns:svg="http://www.w3.org/2000/svg"
   xmlns="http://www.w3.org/2000/svg"
   xmlns:sodipodi="http://sodipodi.sourceforge.net/DTD/sodipodi-0.dtd"
   xmlns:inkscape="http://www.inkscape.org/namespaces/inkscape"
   id="svg2"
   version="1.1"
   inkscape:version="0.48.4 r9939"
   width="128"
   height="128"
   sodipodi:docname="icon_source.svg"
   inkscape:export-filename="icon.png"
   inkscape:export-xdpi="90"
   inkscape:export-ydpi="90">
  <metadata
     id="metadata8">
    <rdf:RDF>
      <cc:Work
         rdf:about="">
        <dc:format>image/svg+xml</dc:format>
        <dc:type
           rdf:resource="http://purl.org/dc/dcmitype/StillImage" />
        <dc:title></dc:title>
      </cc:Work>
    </rdf:RDF>
  </metadata>
  <defs
     id="defs6" />
  <sodipodi:namedview
     pagecolor="#ffffff"
     bordercolor="#666666"
     borderopacity="1"
     objecttolerance="10"
     gridtolerance="10"
     guidetolerance="10"
     inkscape:pageopacity="0"
     inkscape:pageshadow="2"
     inkscape:window-width="1861"
     inkscape:window-height="1176"
     id="namedview4"
     showgrid="false"
     inkscape:zoom="6.56925"
     inkscape:cx="82.478338"
     inkscape:cy="71.659541"
     inkscape:window-x="59"
     inkscape:window-y="24"
     inkscape:window-maximized="1"
     inkscape:current-layer="svg2"
     fit-margin-top="0"
     fit-margin-left="0"
     fit-margin-right="0"
     fit-margin-bottom="0" />
  <g
     id="g3062"
     transform="matrix(1.0169257,0,0,1.0169257,-0.70676762,-0.53091878)">
    <g
       id="g10"
       inkscape:label="ink_ext_XXXXXX"
       transform="matrix(4.1835096,0,0,-4.1835096,-381.95313,784.62365)">
      <path
         inkscape:connector-curvature="0"
         id="path18"
         style="fill:#231f20;fill-opacity:1;fill-rule:nonzero;stroke:none"
         d="m 111.934,158.62 c 0,0 1.226,0.327 1.963,1.064 0,0 0.573,3.762 3.189,7.033 2.618,3.272 4.173,10.879 1.637,14.886 -2.537,4.008 -9.161,8.18 -14.478,4.254 0,0 -4.4165,0.489 -8.0966,-3.436 -3.6816,-3.925 -3.1906,-8.752 -3.0261,-10.142 0.1632,-1.39 2.1261,-4.744 2.0441,-12.923 0,0 -0.1633,-0.409 4.7441,-1.799 1.40324,-0.11124 -0.312237,-0.81939 12.0235,1.063 z"
         sodipodi:nodetypes="cccccccccc" />
      <path
         inkscape:connector-curvature="0"
         id="path252"
         style="fill:#f5f331;fill-opacity:1;fill-rule:nonzero;stroke:none"
         d="m 112.098,163.609 c 0,0 0.818,-2.617 -0.492,-4.089 0,0 1.064,-0.327 1.8,0.572 0,0 0.082,3.517 2.291,6.134 2.207,2.618 6.624,10.797 -0.409,17.994 0,0 2.045,-3.68 1.798,-7.77 -0.245,-4.089 -1.798,-8.261 -4.988,-12.841" />
      <path
         inkscape:connector-curvature="0"
         id="path254"
         style="fill:#f0efbe;fill-opacity:1;fill-rule:nonzero;stroke:none"
         d="m 111.524,163.282 c 0,0 0.901,-2.044 -0.408,-3.353 -1.309,-1.309 -2.044,-0.327 -1.88,0.654 0.162,0.981 1.308,3.435 2.288,2.699" />
      <path
         inkscape:connector-curvature="0"
         id="path256"
         style="fill:#f5f331;fill-opacity:1;fill-rule:nonzero;stroke:none"
         d="m 95.9844,180.867 c 0,0 2.2902,3.435 7.0346,4.253 4.744,0.818 7.688,-0.49 9.161,-1.963 1.472,-1.472 3.679,-4.58 1.963,-11.777 l -3.763,-0.164 c 0,0 0.818,5.071 -1.636,7.034 -2.454,1.963 -6.053,1.391 -7.198,-2.454 0,0 -0.163,5.398 -5.5616,4.908 l 0,0.163" />
      <path
         inkscape:connector-curvature="0"
         id="path258"
         style="fill:#f1f0be;fill-opacity:1;fill-rule:nonzero;stroke:none"
         d="m 105.063,185.775 c 0,0 2.291,0 3.927,-0.246 l 0.163,1.309 c 0,0 -2.29,0.328 -4.09,-1.063" />
      <path
         inkscape:connector-curvature="0"
         id="path260"
         style="fill:#f0efbe;fill-opacity:1;fill-rule:nonzero;stroke:none"
         d="m 109.398,186.429 c 0,0 1.064,-0.327 0.818,-1.144 l -0.98,0.326 0.162,0.818" />
      <path
         inkscape:connector-curvature="0"
         id="path262"
         style="fill:#f0efbe;fill-opacity:1;fill-rule:nonzero;stroke:none"
         d="m 110.216,186.429 c 0,0 0.654,-0.572 0.41,-1.554 0,0 1.39,-0.818 2.372,-1.881 l 1.226,1.144 c 0,0 -0.736,2.046 -4.008,2.291" />
      <path
         inkscape:connector-curvature="0"
         id="path264"
         style="fill:#f0efbe;fill-opacity:1;fill-rule:nonzero;stroke:none"
         d="m 114.55,183.566 c 0,0 2.946,-3.108 1.882,-9.161 l -1.144,0.083 c 0,0 0.49,1.962 0,4.089 l 0.817,-0.164 c 0,0 -0.327,0.573 -1.063,0.573 0,0 -0.164,1.718 -1.554,3.68 l 1.062,0.9" />
      <path
         inkscape:connector-curvature="0"
         id="path266"
         style="fill:#f0efbe;fill-opacity:1;fill-rule:nonzero;stroke:none"
         d="m 115.124,173.915 1.226,-0.082 c 0,0 -1.062,-4.335 -3.026,-7.362 0,0 1.636,4.336 1.8,7.444" />
      <path
         inkscape:connector-curvature="0"
         id="path268"
         style="fill:#f5f331;fill-opacity:1;fill-rule:nonzero;stroke:none"
         d="m 113.978,170.725 c 0,0 -0.49,-3.844 -2.535,-6.788 0,0 -1.309,-0.165 -2.207,-1.555 L 104,162.464 c 0,0 0.491,1.718 2.454,3.599 1.962,1.881 2.618,2.535 3.516,4.498 l 4.008,0.164" />
      <path
         inkscape:connector-curvature="0"
         id="path270"
         style="fill:#f5f331;fill-opacity:1;fill-rule:nonzero;stroke:none"
         d="m 103.672,161.973 5.318,-0.081 c 0,0 -0.656,-2.046 0.163,-2.699 0,0 -4.498,-1.636 -6.38,-0.9 0,0 -0.245,1.636 0.899,3.68" />
      <path
         inkscape:connector-curvature="0"
         id="path272"
         style="fill:#f0efbe;fill-opacity:1;fill-rule:nonzero;stroke:none"
         d="m 102.855,162.219 -2.29,0.491 0,-0.328 c 0,0 -1.9627,-0.163 -2.9455,0.818 l -0.1621,0.246 -1.8,0.245 c 0,0 0.1625,-1.962 0,-3.926 0,0 2.7801,-1.799 6.6246,-1.554 0,0 -0.08,2.699 0.573,4.008" />
      <path
         inkscape:connector-curvature="0"
         id="path274"
         style="fill:#f0ef90;fill-opacity:1;fill-rule:nonzero;stroke:none"
         d="m 103.182,162.71 c 0,0 1.063,1.962 3.026,3.926 1.963,1.962 3.19,2.862 3.844,5.398 0.655,2.535 -1.062,6.462 -3.353,6.706 -2.29,0.246 -4.171,-0.9 -5.398,-4.907 0,0 -0.408,-3.026 -1.3084,-4.171 0,0 1.2264,-1.309 1.5534,-2.454 l -0.491,-0.083 c 0,0 -0.981,1.882 -1.4718,1.965 l -1.3082,-1.064 -0.2457,0.327 c 0,0 2.1267,1.472 2.6167,4.335 0.492,2.863 1.064,3.19 -0.8995,6.462 0,0 -1.6356,1.39 -4.0074,1.063 0,0 -2.2895,-3.517 -1.7996,-7.198 0.491,-3.68 1.4722,-5.89 1.7179,-8.833 l 1.5535,-0.328 0.2465,-0.082 0,1.064 c 0,0 1.6352,-0.081 3.2716,-0.654 l 0,-1.064 c 0,0 1.799,-0.408 2.453,-0.408" />
      <path
         inkscape:connector-curvature="0"
         id="path276"
         style="fill:#a9a796;fill-opacity:1;fill-rule:nonzero;stroke:none"
         d="m 94.1035,175.878 6.7075,-2.453 c 0,0 1.226,2.534 -1.0645,5.725 0,0 -2.3711,1.635 -4.0074,1.063 0,0 -1.3903,-2.208 -1.6356,-4.335" />
      <path
         inkscape:connector-curvature="0"
         id="path278"
         style="fill:#a9a796;fill-opacity:1;fill-rule:nonzero;stroke:none"
         d="m 101.628,174.733 c 0,0 6.543,-2.045 7.525,-4.826 0,0 1.391,2.127 0.981,4.089 -0.409,1.963 -1.226,4.09 -3.435,4.744 -2.208,0.656 -4.58,-1.962 -5.071,-4.007" />
      <path
         inkscape:connector-curvature="0"
         id="path280"
         style="fill:#231f20;fill-opacity:1;fill-rule:nonzero;stroke:none"
         d="m 102.695,172.384 c -0.136,2.3 0.943,4.234 2.411,4.322 1.469,0.087 2.769,-1.707 2.906,-4.006 0.137,-2.3 -0.943,-4.235 -2.41,-4.322 -1.468,-0.087 -2.77,1.706 -2.907,4.006" />
      <path
         inkscape:connector-curvature="0"
         id="path282"
         style="fill:#dbc72d;fill-opacity:1;fill-rule:nonzero;stroke:none"
         d="m 103.084,172.407 c -0.117,1.964 0.805,3.616 2.058,3.691 1.254,0.074 2.365,-1.457 2.481,-3.421 0.117,-1.964 -0.805,-3.617 -2.058,-3.691 -1.254,-0.074 -2.364,1.457 -2.481,3.421" />
      <path
         inkscape:connector-curvature="0"
         id="path284"
         style="fill:#231f20;fill-opacity:1;fill-rule:nonzero;stroke:none"
         d="m 94.9211,174.323 c 0,2.259 1.1719,4.09 2.6176,4.09 1.4453,0 2.6173,-1.831 2.6173,-4.09 0,-2.257 -1.172,-4.088 -2.6173,-4.088 -1.4457,0 -2.6176,1.831 -2.6176,4.088" />
      <path
         inkscape:connector-curvature="0"
         id="path286"
         style="fill:#dbc72d;fill-opacity:1;fill-rule:nonzero;stroke:none"
         d="m 95.2484,174.323 c 0,1.977 1.0254,3.579 2.2903,3.579 1.2644,0 2.2898,-1.602 2.2898,-3.579 0,-1.975 -1.0254,-3.577 -2.2898,-3.577 -1.2649,0 -2.2903,1.602 -2.2903,3.577" />
      <path
         inkscape:connector-curvature="0"
         id="path288"
         style="fill:#231f20;fill-opacity:1;fill-rule:nonzero;stroke:none"
         d="m 107.292,174.539 0.522,-3.068 0.061,1.012 -0.583,2.056" />
      <path
         inkscape:connector-curvature="0"
         id="path290"
         style="fill:#231f20;fill-opacity:1;fill-rule:nonzero;stroke:none"
         d="m 95.9445,174.323 c 0,0.509 0.3563,0.921 0.7969,0.921 0.4406,0 0.7973,-0.412 0.7973,-0.921 0,-0.507 -0.3567,-0.919 -0.7973,-0.919 -0.4406,0 -0.7969,0.412 -0.7969,0.919" />
      <path
         inkscape:connector-curvature="0"
         id="path292"
         style="fill:#231f20;fill-opacity:1;fill-rule:nonzero;stroke:none"
         d="m 103.793,172.039 c 0,0.509 0.357,0.92 0.798,0.92 0.44,0 0.797,-0.411 0.797,-0.92 0,-0.508 -0.357,-0.92 -0.797,-0.92 -0.441,0 -0.798,0.412 -0.798,0.92" />
      <path
         inkscape:connector-curvature="0"
         id="path294"
         style="fill:#231f20;fill-opacity:1;fill-rule:nonzero;stroke:none"
         d="m 95.309,175.807 0.6473,-4.459 0.3593,-0.217 -0.8984,5.179 -0.1082,-0.503" />
      <path
         inkscape:connector-curvature="0"
         id="path296"
         style="fill:#231f20;fill-opacity:1;fill-rule:nonzero;stroke:none"
         d="m 95.7043,176.958 1.0789,-6.258 0.2883,-0.036 -1.1875,6.545 -0.1797,-0.251" />
      <path
         inkscape:connector-curvature="0"
         id="path298"
         style="fill:#231f20;fill-opacity:1;fill-rule:nonzero;stroke:none"
         d="m 96.3523,177.641 1.1864,-7.049 0.4324,0 -1.3316,7.372 -0.2872,-0.323" />
      <path
         inkscape:connector-curvature="0"
         id="path300"
         style="fill:#231f20;fill-opacity:1;fill-rule:nonzero;stroke:none"
         d="m 97.1434,177.964 1.3304,-7.156 0.2157,0.216 -1.3309,7.048 -0.2152,-0.108" />
      <path
         inkscape:connector-curvature="0"
         id="path302"
         style="fill:#231f20;fill-opacity:1;fill-rule:nonzero;stroke:none"
         d="m 98.0426,177.964 1.15,-6.401 c 0,0 0.2515,0.323 0.2515,0.432 0,0.108 -1.1859,5.934 -1.1859,5.934 l -0.2156,0.035" />
      <path
         inkscape:connector-curvature="0"
         id="path304"
         style="fill:#231f20;fill-opacity:1;fill-rule:nonzero;stroke:none"
         d="m 98.977,177.389 0.971,-4.316 0.072,0.684 -0.7552,3.309 -0.2878,0.323" />
      <path
         inkscape:connector-curvature="0"
         id="path306"
         style="fill:#231f20;fill-opacity:1;fill-rule:nonzero;stroke:none"
         d="m 103.041,173.937 0.827,-4.316 0.396,-0.216 -1.079,4.999 -0.144,-0.467" />
      <path
         inkscape:connector-curvature="0"
         id="path308"
         style="fill:#231f20;fill-opacity:1;fill-rule:nonzero;stroke:none"
         d="m 103.437,175.052 c 0,0 1.15,-6.258 1.258,-6.258 0.108,0 0.36,0 0.36,0 l -1.546,6.545 -0.072,-0.287" />
      <path
         inkscape:connector-curvature="0"
         id="path310"
         style="fill:#231f20;fill-opacity:1;fill-rule:nonzero;stroke:none"
         d="m 103.94,175.915 1.51,-7.193 0.217,0.036 -1.475,7.229 -0.252,-0.072" />
      <path
         inkscape:connector-curvature="0"
         id="path312"
         style="fill:#231f20;fill-opacity:1;fill-rule:nonzero;stroke:none"
         d="m 104.695,176.31 1.51,-7.336 0.36,0.216 -1.582,7.048 -0.288,0.072" />
      <path
         inkscape:connector-curvature="0"
         id="path314"
         style="fill:#231f20;fill-opacity:1;fill-rule:nonzero;stroke:none"
         d="m 105.558,176.346 1.403,-6.725 0.252,0.324 -1.439,6.257 -0.216,0.144" />
      <path
         inkscape:connector-curvature="0"
         id="path316"
         style="fill:#231f20;fill-opacity:1;fill-rule:nonzero;stroke:none"
         d="m 106.314,175.987 1.258,-5.216 0.144,0.397 -1.079,4.423 -0.323,0.396" />
    </g>
  </g>
</svg>
